<svg xmlns="http://www.w3.org/2000/svg" width="760" height="940" viewBox="0 0 760 940" role="img" aria-labelledby="diag-title diag-desc" data-figure-kind="residuals" data-panel-count="4"><title id="diag-title">Четыре раздельные панели диагностики OOF и sensitivity</title><desc id="diag-desc">OOF residual против x; OOF residual против OOF prediction; абсолютный robust z против x с порогом 3.5; отдельно sensitivity финального refit по независимым x-группам. OOF status: available.</desc><rect x="0" y="0" width="760" height="940" fill="#FFFFFF"/><g data-panel="1"><text x="92.0" y="37.0" fill="#111827" font-size="17" font-weight="700">1. OOF residual против x</text><rect x="92.0" y="55.0" width="610.0" height="150.0" fill="#FFFFFF" stroke="#111827" stroke-width="1.5"/><text x="397.0" y="235.0" text-anchor="middle" fill="#111827" font-size="13">x, s</text><text x="26" y="130.0" text-anchor="middle" transform="rotate(-90 26 130.0)" fill="#111827" font-size="13">residual, mV</text><line x1="92.0" y1="130.000" x2="702.0" y2="130.000" stroke="#111827" stroke-width="1.5" stroke-dasharray="7 5" data-zero-line="true"/><circle cx="92.000" cy="160.435" r="5" fill="#4B5563" data-series="oof_residual_vs_x" data-row-id="row-01" data-residual="-1.6367880131525894"/><circle cx="179.143" cy="64.783" r="5" fill="#4B5563" data-series="oof_residual_vs_x" data-row-id="row-02" data-residual="3.507402885326977"/><circle cx="266.286" cy="149.807" r="5" fill="#4B5563" data-series="oof_residual_vs_x" data-row-id="row-03" data-residual="-1.0652112466548596"/><circle cx="353.429" cy="149.186" r="5" fill="#4B5563" data-series="oof_residual_vs_x" data-row-id="row-04" data-residual="-1.0318074096517456"/><circle cx="353.429" cy="147.253" r="5" fill="#4B5563" data-series="oof_residual_vs_x" data-row-id="row-05" data-residual="-0.92788436119761286"/><circle cx="353.429" cy="147.253" r="5" fill="#4B5563" data-series="oof_residual_vs_x" data-row-id="row-06" data-residual="-0.92788436119761286"/><circle cx="353.429" cy="142.422" r="5" fill="#4B5563" data-series="oof_residual_vs_x" data-row-id="row-07" data-residual="-0.66807674006228124"/><circle cx="440.571" cy="130.676" r="5" fill="#4B5563" data-series="oof_residual_vs_x" data-row-id="row-08" data-residual="-0.036373066958946577"/><circle cx="527.714" cy="126.425" r="5" fill="#4B5563" data-series="oof_residual_vs_x" data-row-id="row-09" data-residual="0.19225763964014569"/><circle cx="614.857" cy="117.923" r="5" fill="#4B5563" data-series="oof_residual_vs_x" data-row-id="row-10" data-residual="0.649519052838329"/><circle cx="702.000" cy="113.671" r="5" fill="#4B5563" data-series="oof_residual_vs_x" data-row-id="row-11" data-residual="0.87814975943742113"/></g><g data-panel="2"><text x="92.0" y="257.0" fill="#111827" font-size="17" font-weight="700">2. OOF residual против OOF prediction</text><rect x="92.0" y="275.0" width="610.0" height="150.0" fill="#FFFFFF" stroke="#111827" stroke-width="1.5"/><text x="397.0" y="455.0" text-anchor="middle" fill="#111827" font-size="13">OOF prediction, mV</text><text x="26" y="350.0" text-anchor="middle" transform="rotate(-90 26 350.0)" fill="#111827" font-size="13">residual, mV</text><line x1="92.0" y1="350.000" x2="702.0" y2="350.000" stroke="#111827" stroke-width="1.5" stroke-dasharray="7 5"/><circle cx="92.000" cy="380.435" r="5" fill="#4B5563" data-series="oof_residual_vs_prediction" data-row-id="row-01"/><circle cx="702.000" cy="284.783" r="5" fill="#4B5563" data-series="oof_residual_vs_prediction" data-row-id="row-02"/><circle cx="159.778" cy="369.807" r="5" fill="#4B5563" data-series="oof_residual_vs_prediction" data-row-id="row-03"/><circle cx="233.595" cy="369.186" r="5" fill="#4B5563" data-series="oof_residual_vs_prediction" data-row-id="row-04"/><circle cx="248.794" cy="367.253" r="5" fill="#4B5563" data-series="oof_residual_vs_prediction" data-row-id="row-05"/><circle cx="248.794" cy="367.253" r="5" fill="#4B5563" data-series="oof_residual_vs_prediction" data-row-id="row-06"/><circle cx="286.793" cy="362.422" r="5" fill="#4B5563" data-series="oof_residual_vs_prediction" data-row-id="row-07"/><circle cx="281.778" cy="350.676" r="5" fill="#4B5563" data-series="oof_residual_vs_prediction" data-row-id="row-08"/><circle cx="308.889" cy="346.425" r="5" fill="#4B5563" data-series="oof_residual_vs_prediction" data-row-id="row-09"/><circle cx="363.111" cy="337.923" r="5" fill="#4B5563" data-series="oof_residual_vs_prediction" data-row-id="row-10"/><circle cx="390.222" cy="333.671" r="5" fill="#4B5563" data-series="oof_residual_vs_prediction" data-row-id="row-11"/></g><g data-panel="3"><text x="92.0" y="477.0" fill="#111827" font-size="17" font-weight="700">3. |z OOF| против x</text><rect x="92.0" y="495.0" width="610.0" height="150.0" fill="#FFFFFF" stroke="#111827" stroke-width="1.5"/><text x="397.0" y="675.0" text-anchor="middle" fill="#111827" font-size="13">x, s</text><text x="26" y="570.0" text-anchor="middle" transform="rotate(-90 26 570.0)" fill="#111827" font-size="13">median |z|</text><line x1="92.0" y1="514.821" x2="702.0" y2="514.821" stroke="#B00020" stroke-width="3" stroke-dasharray="8 6" data-z-threshold="3.5"/><text x="100.0" y="507.821" fill="#B00020" font-size="13" font-weight="700">review threshold |z|=3.5</text><circle cx="92.000" cy="589.873" r="5" fill="#4B5563" data-series="absolute_z_vs_x" data-row-id="row-01" data-score="1.4821467294575899"/><circle cx="179.143" cy="511.071" r="5" fill="#4B5563" data-series="absolute_z_vs_x" data-row-id="row-02" data-score="3.6007981893570875"/><circle cx="266.286" cy="610.288" r="5" fill="#4B5563" data-series="absolute_z_vs_x" data-row-id="row-03" data-score="0.93326097729196866"/><circle cx="353.429" cy="615.616" r="5" fill="#4B5563" data-series="absolute_z_vs_x" data-row-id="row-04" data-score="0.79001893074735252"/><circle cx="353.429" cy="618.575" r="5" fill="#4B5563" data-series="absolute_z_vs_x" data-row-id="row-05" data-score="0.71044867872963346"/><circle cx="353.429" cy="618.575" r="5" fill="#4B5563" data-series="absolute_z_vs_x" data-row-id="row-06" data-score="0.71044867872963346"/><circle cx="353.429" cy="625.974" r="5" fill="#4B5563" data-series="absolute_z_vs_x" data-row-id="row-07" data-score="0.51152304868533616"/><circle cx="440.571" cy="643.775" r="5" fill="#4B5563" data-series="absolute_z_vs_x" data-row-id="row-08" data-score="0.032936593987946572"/><circle cx="527.714" cy="638.525" r="5" fill="#4B5563" data-series="absolute_z_vs_x" data-row-id="row-09" data-score="0.17409342536485992"/><circle cx="614.857" cy="623.124" r="5" fill="#4B5563" data-series="absolute_z_vs_x" data-row-id="row-10" data-score="0.58815346407047198"/><circle cx="702.000" cy="612.887" r="5" fill="#4B5563" data-series="absolute_z_vs_x" data-row-id="row-11" data-score="0.86339546261234967"/></g><g data-panel="4"><text x="92.0" y="697.0" fill="#111827" font-size="17" font-weight="700">4. sensitivity финального refit по x-группе</text><rect x="92.0" y="715.0" width="610.0" height="150.0" fill="#FFFFFF" stroke="#111827" stroke-width="1.5"/><text x="397.0" y="895.0" text-anchor="middle" fill="#111827" font-size="13">x-group, s</text><text x="26" y="790.0" text-anchor="middle" transform="rotate(-90 26 790.0)" fill="#111827" font-size="13">Dmax / Drms</text><line x1="92.0" y1="753.393" x2="702.0" y2="753.393" stroke="#B00020" stroke-width="2" stroke-dasharray="6 5" data-influence-threshold="0.5"/><text x="100.0" y="748.393" fill="#B00020" font-size="12">Dmax=0.50</text><line x1="92.0" y1="809.196" x2="702.0" y2="809.196" stroke="#B00020" stroke-width="2" stroke-dasharray="6 5" data-influence-threshold="0.25"/><text x="100.0" y="804.196" fill="#B00020" font-size="12">Drms=0.25</text><polygon points="88.000,836.679 94.000,842.679 88.000,848.679 82.000,842.679" fill="none" stroke="#005A9C" stroke-width="2" data-series="influence_dmax" data-x-group-id="x:0x0.0p+0" data-value="0.10000000000000001"/><polygon points="96.000,847.839 102.000,853.839 96.000,859.839 90.000,853.839" fill="none" stroke="#005A9C" stroke-width="2" data-series="influence_drms" data-x-group-id="x:0x0.0p+0" data-value="0.050000000000000003"/><polygon points="175.143,725.071 181.143,731.071 175.143,737.071 169.143,731.071" fill="none" stroke="#005A9C" stroke-width="2" data-series="influence_dmax" data-x-group-id="x:0x1.0000000000000p+0" data-value="0.59999999999999998"/><polygon points="183.143,792.036 189.143,798.036 183.143,804.036 177.143,798.036" fill="none" stroke="#005A9C" stroke-width="2" data-series="influence_drms" data-x-group-id="x:0x1.0000000000000p+0" data-value="0.29999999999999999"/><polygon points="262.286,839.230 268.286,845.230 262.286,851.230 256.286,845.230" fill="none" stroke="#005A9C" stroke-width="2" data-series="influence_dmax" data-x-group-id="x:0x1.0000000000000p+1" data-value="0.088571428571428579"/><polygon points="270.286,849.115 276.286,855.115 270.286,861.115 264.286,855.115" fill="none" stroke="#005A9C" stroke-width="2" data-series="influence_drms" data-x-group-id="x:0x1.0000000000000p+1" data-value="0.044285714285714289"/><polygon points="349.429,840.505 355.429,846.505 349.429,852.505 343.429,846.505" fill="none" stroke="#005A9C" stroke-width="2" data-series="influence_dmax" data-x-group-id="x:0x1.8000000000000p+1" data-value="0.082857142857142865"/><polygon points="357.429,849.753 363.429,855.753 357.429,861.753 351.429,855.753" fill="none" stroke="#005A9C" stroke-width="2" data-series="influence_drms" data-x-group-id="x:0x1.8000000000000p+1" data-value="0.041428571428571433"/><polygon points="436.571,840.505 442.571,846.505 436.571,852.505 430.571,846.505" fill="none" stroke="#005A9C" stroke-width="2" data-series="influence_dmax" data-x-group-id="x:0x1.0000000000000p+2" data-value="0.082857142857142865"/><polygon points="444.571,849.753 450.571,855.753 444.571,861.753 438.571,855.753" fill="none" stroke="#005A9C" stroke-width="2" data-series="influence_drms" data-x-group-id="x:0x1.0000000000000p+2" data-value="0.041428571428571433"/><polygon points="523.714,839.230 529.714,845.230 523.714,851.230 517.714,845.230" fill="none" stroke="#005A9C" stroke-width="2" data-series="influence_dmax" data-x-group-id="x:0x1.4000000000000p+2" data-value="0.088571428571428579"/><polygon points="531.714,849.115 537.714,855.115 531.714,861.115 525.714,855.115" fill="none" stroke="#005A9C" stroke-width="2" data-series="influence_drms" data-x-group-id="x:0x1.4000000000000p+2" data-value="0.044285714285714289"/><polygon points="610.857,837.954 616.857,843.954 610.857,849.954 604.857,843.954" fill="none" stroke="#005A9C" stroke-width="2" data-series="influence_dmax" data-x-group-id="x:0x1.8000000000000p+2" data-value="0.094285714285714292"/><polygon points="618.857,848.477 624.857,854.477 618.857,860.477 612.857,854.477" fill="none" stroke="#005A9C" stroke-width="2" data-series="influence_drms" data-x-group-id="x:0x1.8000000000000p+2" data-value="0.047142857142857146"/><polygon points="698.000,836.679 704.000,842.679 698.000,848.679 692.000,842.679" fill="none" stroke="#005A9C" stroke-width="2" data-series="influence_dmax" data-x-group-id="x:0x1.c000000000000p+2" data-value="0.10000000000000001"/><polygon points="706.000,847.839 712.000,853.839 706.000,859.839 700.000,853.839" fill="none" stroke="#005A9C" stroke-width="2" data-series="influence_drms" data-x-group-id="x:0x1.c000000000000p+2" data-value="0.050000000000000003"/></g></svg>