<svg xmlns="http://www.w3.org/2000/svg" width="640" height="400" viewBox="0 0 640 400" role="img" aria-labelledby="title desc" data-figure-kind="two" data-xlim="0.0,9.0" data-ylim="-1.2799999999999998,22.28" data-plot-rect="70,40,520,280"><title id="title">Двухсегментная монотонная аппроксимация</title><desc id="desc">Синтетический scatterplot, 10 наблюдений; x от 0.0 до 9.0 s, y от -1.28 до 22.28 mV.</desc><rect x="0" y="0" width="640" height="400" fill="#FFFFFF"/><line x1="70.000" y1="40" x2="70.000" y2="320" stroke="#D1D5DB" stroke-width="1"/><text x="70.000" y="344" text-anchor="middle" fill="#111827" font-size="13">0.0</text><line x1="174.000" y1="40" x2="174.000" y2="320" stroke="#D1D5DB" stroke-width="1"/><text x="174.000" y="344" text-anchor="middle" fill="#111827" font-size="13">1.8</text><line x1="278.000" y1="40" x2="278.000" y2="320" stroke="#D1D5DB" stroke-width="1"/><text x="278.000" y="344" text-anchor="middle" fill="#111827" font-size="13">3.6</text><line x1="382.000" y1="40" x2="382.000" y2="320" stroke="#D1D5DB" stroke-width="1"/><text x="382.000" y="344" text-anchor="middle" fill="#111827" font-size="13">5.4</text><line x1="486.000" y1="40" x2="486.000" y2="320" stroke="#D1D5DB" stroke-width="1"/><text x="486.000" y="344" text-anchor="middle" fill="#111827" font-size="13">7.2</text><line x1="590.000" y1="40" x2="590.000" y2="320" stroke="#D1D5DB" stroke-width="1"/><text x="590.000" y="344" text-anchor="middle" fill="#111827" font-size="13">9.0</text><line x1="70" y1="40.000" x2="590" y2="40.000" stroke="#D1D5DB" stroke-width="1"/><text x="58" y="44.000" text-anchor="end" fill="#111827" font-size="13">22.3</text><line x1="70" y1="110.000" x2="590" y2="110.000" stroke="#D1D5DB" stroke-width="1"/><text x="58" y="114.000" text-anchor="end" fill="#111827" font-size="13">16.4</text><line x1="70" y1="180.000" x2="590" y2="180.000" stroke="#D1D5DB" stroke-width="1"/><text x="58" y="184.000" text-anchor="end" fill="#111827" font-size="13">10.5</text><line x1="70" y1="250.000" x2="590" y2="250.000" stroke="#D1D5DB" stroke-width="1"/><text x="58" y="254.000" text-anchor="end" fill="#111827" font-size="13">4.6</text><line x1="70" y1="320.000" x2="590" y2="320.000" stroke="#D1D5DB" stroke-width="1"/><text x="58" y="324.000" text-anchor="end" fill="#111827" font-size="13">-1.3</text><rect x="70" y="40" width="520" height="280" fill="none" stroke="#111827" stroke-width="1.5"/><text x="330.0" y="386" text-anchor="middle" fill="#111827" font-size="14">x, s</text><text x="18" y="180.0" text-anchor="middle" transform="rotate(-90 18 180.0)" fill="#111827" font-size="14">y, mV</text><polyline points="70.000,283.990 76.356,283.571 82.711,283.153 89.067,282.735 95.422,282.316 101.778,281.898 108.133,281.480 114.489,281.061 120.844,280.643 127.200,280.225 133.556,279.806 139.911,279.388 146.267,278.970 152.622,278.551 158.978,278.133 165.333,277.715 171.689,277.296 178.044,276.878 184.400,276.460 190.756,276.041 197.111,275.623 203.467,275.205 209.822,274.786 216.178,274.368 222.533,273.950 228.889,273.531 235.244,273.113 241.600,272.695 247.956,272.276 254.311,271.858 260.667,271.440 267.022,271.021 273.378,270.603 279.733,270.185 286.089,269.766 292.444,269.348 298.800,268.930 305.156,268.511 311.511,268.093 317.867,267.675 324.222,267.256 330.578,266.838 336.933,266.420 343.289,266.001 349.644,265.583 356.000,265.165 362.356,264.746 368.711,264.328 375.067,263.910 381.422,263.491 387.778,263.073" fill="none" stroke="#005A9C" stroke-width="4" data-series="p2_left" data-domain="0.0,5.5"/><polyline points="387.778,263.073 391.822,262.258 395.867,261.442 399.911,260.627 403.956,259.812 408.000,258.997 412.044,258.181 416.089,257.366 420.133,256.551 424.178,255.735 428.222,254.920 432.267,254.105 436.311,253.290 440.356,252.474 444.400,251.659 448.444,250.844 452.489,250.029 456.533,249.213 460.578,248.398 464.622,247.583 468.667,246.767 472.711,245.952 476.756,245.137 480.800,244.322 484.844,243.506 488.889,242.691 492.933,241.876 496.978,241.060 501.022,240.245 505.067,239.430 509.111,238.615 513.156,237.799 517.200,236.984 521.244,236.169 525.289,235.353 529.333,234.538 533.378,233.723 537.422,232.908 541.467,232.092 545.511,231.277 549.556,230.462 553.600,229.647 557.644,228.831 561.689,228.016 565.733,227.201 569.778,226.385 573.822,225.570 577.867,224.755 581.911,223.940 585.956,223.124 590.000,222.309" fill="none" stroke="#005A9C" stroke-width="4" stroke-dasharray="10 5" data-series="p2_right" data-domain="5.5,9.0"/><line x1="387.778" y1="40" x2="387.778" y2="320" stroke="#B00020" stroke-width="4" stroke-dasharray="8 6" data-boundary="5.5"/><text x="395.778" y="60" fill="#B00020" font-size="14" font-weight="700">граница c=5.50</text><text x="78.000" y="85.000" fill="#005A9C" font-size="12" font-weight="700" data-branch-label="left">левая: poly1_v1</text><text x="405.000" y="85.000" fill="#005A9C" font-size="12" font-weight="700" data-branch-label="right">правая: poly1_v1</text><circle cx="70.000" cy="281.019" r="5" fill="#4B5563" fill-opacity="0.78" stroke="#111827" stroke-width="1.5" data-row-id="row-01" data-x="0" data-y="2" data-multiplicity="1"/><circle cx="127.778" cy="245.365" r="5" fill="#4B5563" fill-opacity="0.78" stroke="#111827" stroke-width="1.5" data-row-id="row-02" data-x="1" data-y="5" data-multiplicity="1"/><circle cx="185.556" cy="292.903" r="5" fill="#4B5563" fill-opacity="0.78" stroke="#111827" stroke-width="1.5" data-row-id="row-03" data-x="2" data-y="1" data-multiplicity="1"/><circle cx="243.333" cy="233.480" r="5" fill="#4B5563" fill-opacity="0.78" stroke="#111827" stroke-width="1.5" data-row-id="row-04" data-x="3" data-y="6" data-multiplicity="1"/><circle cx="301.111" cy="276.265" r="5" fill="#4B5563" fill-opacity="0.78" stroke="#111827" stroke-width="1.5" data-row-id="row-05" data-x="4" data-y="2.3999999999999999" data-multiplicity="1"/><circle cx="358.889" cy="67.097" r="5" fill="#4B5563" fill-opacity="0.78" stroke="#111827" stroke-width="1.5" data-row-id="row-06" data-x="5" data-y="20" data-multiplicity="1"/><path d="M 358.889 57.097 L 367.889 75.097 L 349.889 75.097 Z" fill="none" stroke="#111827" stroke-width="2.5" data-flag="residual"/><circle cx="416.667" cy="283.396" r="5" fill="#4B5563" fill-opacity="0.78" stroke="#111827" stroke-width="1.5" data-row-id="row-07" data-x="6" data-y="1.8" data-multiplicity="1"/><circle cx="474.444" cy="227.538" r="5" fill="#4B5563" fill-opacity="0.78" stroke="#111827" stroke-width="1.5" data-row-id="row-08" data-x="7" data-y="6.5" data-multiplicity="1"/><circle cx="532.222" cy="279.830" r="5" fill="#4B5563" fill-opacity="0.78" stroke="#111827" stroke-width="1.5" data-row-id="row-09" data-x="8" data-y="2.1000000000000001" data-multiplicity="1"/><circle cx="590.000" cy="239.423" r="5" fill="#4B5563" fill-opacity="0.78" stroke="#111827" stroke-width="1.5" data-row-id="row-10" data-x="9" data-y="5.5" data-multiplicity="1"/></svg>