<svg xmlns="http://www.w3.org/2000/svg" width="640" height="400" viewBox="0 0 640 400" role="img" aria-labelledby="title desc" data-figure-kind="one" data-xlim="0.0,11.0" data-ylim="-0.34399999999999986,16.644" data-plot-rect="70,40,520,280"><title id="title">Односегментная монотонная аппроксимация</title><desc id="desc">Синтетический scatterplot, 12 наблюдений; x от 0.0 до 11.0 s, y от -0.34 до 16.64 mV.</desc><rect x="0" y="0" width="640" height="400" fill="#FFFFFF"/><line x1="70.000" y1="40" x2="70.000" y2="320" stroke="#D1D5DB" stroke-width="1"/><text x="70.000" y="344" text-anchor="middle" fill="#111827" font-size="13">0.0</text><line x1="174.000" y1="40" x2="174.000" y2="320" stroke="#D1D5DB" stroke-width="1"/><text x="174.000" y="344" text-anchor="middle" fill="#111827" font-size="13">2.2</text><line x1="278.000" y1="40" x2="278.000" y2="320" stroke="#D1D5DB" stroke-width="1"/><text x="278.000" y="344" text-anchor="middle" fill="#111827" font-size="13">4.4</text><line x1="382.000" y1="40" x2="382.000" y2="320" stroke="#D1D5DB" stroke-width="1"/><text x="382.000" y="344" text-anchor="middle" fill="#111827" font-size="13">6.6</text><line x1="486.000" y1="40" x2="486.000" y2="320" stroke="#D1D5DB" stroke-width="1"/><text x="486.000" y="344" text-anchor="middle" fill="#111827" font-size="13">8.8</text><line x1="590.000" y1="40" x2="590.000" y2="320" stroke="#D1D5DB" stroke-width="1"/><text x="590.000" y="344" text-anchor="middle" fill="#111827" font-size="13">11.0</text><line x1="70" y1="40.000" x2="590" y2="40.000" stroke="#D1D5DB" stroke-width="1"/><text x="58" y="44.000" text-anchor="end" fill="#111827" font-size="13">16.6</text><line x1="70" y1="110.000" x2="590" y2="110.000" stroke="#D1D5DB" stroke-width="1"/><text x="58" y="114.000" text-anchor="end" fill="#111827" font-size="13">12.4</text><line x1="70" y1="180.000" x2="590" y2="180.000" stroke="#D1D5DB" stroke-width="1"/><text x="58" y="184.000" text-anchor="end" fill="#111827" font-size="13">8.1</text><line x1="70" y1="250.000" x2="590" y2="250.000" stroke="#D1D5DB" stroke-width="1"/><text x="58" y="254.000" text-anchor="end" fill="#111827" font-size="13">3.9</text><line x1="70" y1="320.000" x2="590" y2="320.000" stroke="#D1D5DB" stroke-width="1"/><text x="58" y="324.000" text-anchor="end" fill="#111827" font-size="13">-0.3</text><rect x="70" y="40" width="520" height="280" fill="none" stroke="#111827" stroke-width="1.5"/><text x="330.0" y="386" text-anchor="middle" fill="#111827" font-size="14">x, s</text><text x="18" y="180.0" text-anchor="middle" transform="rotate(-90 18 180.0)" fill="#111827" font-size="14">y, mV</text><polyline points="70.000,293.727 75.200,292.567 80.400,291.407 85.600,290.246 90.800,289.086 96.000,287.926 101.200,286.765 106.400,285.605 111.600,284.445 116.800,283.284 122.000,282.124 127.200,280.964 132.400,279.803 137.600,278.643 142.800,277.482 148.000,276.322 153.200,275.162 158.400,274.001 163.600,272.841 168.800,271.681 174.000,270.520 179.200,269.360 184.400,268.200 189.600,267.039 194.800,265.879 200.000,264.719 205.200,263.558 210.400,262.398 215.600,261.238 220.800,260.077 226.000,258.917 231.200,257.757 236.400,256.596 241.600,255.436 246.800,254.275 252.000,253.115 257.200,251.955 262.400,250.794 267.600,249.634 272.800,248.474 278.000,247.313 283.200,246.153 288.400,244.993 293.600,243.832 298.800,242.672 304.000,241.512 309.200,240.351 314.400,239.191 319.600,238.031 324.800,236.870 330.000,235.710 335.200,234.550 340.400,233.389 345.600,232.229 350.800,231.069 356.000,229.908 361.200,228.748 366.400,227.587 371.600,226.427 376.800,225.267 382.000,224.106 387.200,222.946 392.400,221.786 397.600,220.625 402.800,219.465 408.000,218.305 413.200,217.144 418.400,215.984 423.600,214.824 428.800,213.663 434.000,212.503 439.200,211.343 444.400,210.182 449.600,209.022 454.800,207.862 460.000,206.701 465.200,205.541 470.400,204.381 475.600,203.220 480.800,202.060 486.000,200.899 491.200,199.739 496.400,198.579 501.600,197.418 506.800,196.258 512.000,195.098 517.200,193.937 522.400,192.777 527.600,191.617 532.800,190.456 538.000,189.296 543.200,188.136 548.400,186.975 553.600,185.815 558.800,184.655 564.000,183.494 569.200,182.334 574.400,181.174 579.600,180.013 584.800,178.853 590.000,177.692" fill="none" stroke="#005A9C" stroke-width="4" data-series="p1" data-domain="0.0,11.0"/><text x="80" y="62" fill="#005A9C" font-size="14" font-weight="700">P1 · poly1_v1 · nondecreasing · final refit</text><circle cx="70.000" cy="292.903" r="5" fill="#4B5563" fill-opacity="0.78" stroke="#111827" stroke-width="1.5" data-row-id="row-01" data-x="0" data-y="1.3" data-multiplicity="1"/><circle cx="117.273" cy="284.992" r="5" fill="#4B5563" fill-opacity="0.78" stroke="#111827" stroke-width="1.5" data-row-id="row-02" data-x="1" data-y="1.78" data-multiplicity="1"/><circle cx="164.545" cy="274.608" r="5" fill="#4B5563" fill-opacity="0.78" stroke="#111827" stroke-width="1.5" data-row-id="row-03" data-x="2" data-y="2.4100000000000001" data-multiplicity="1"/><circle cx="211.818" cy="67.097" r="5" fill="#4B5563" fill-opacity="0.78" stroke="#111827" stroke-width="1.5" data-row-id="row-04" data-x="3" data-y="15" data-multiplicity="1"/><path d="M 211.818 57.097 L 220.818 75.097 L 202.818 75.097 Z" fill="none" stroke="#111827" stroke-width="2.5" data-flag="residual"/><circle cx="259.091" cy="253.840" r="5" fill="#4B5563" fill-opacity="0.78" stroke="#111827" stroke-width="1.5" data-row-id="row-05" data-x="4" data-y="3.6699999999999999" data-multiplicity="1"/><circle cx="306.364" cy="243.457" r="5" fill="#4B5563" fill-opacity="0.78" stroke="#111827" stroke-width="1.5" data-row-id="row-06" data-x="5" data-y="4.2999999999999998" data-multiplicity="1"/><circle cx="353.636" cy="230.600" r="5" fill="#4B5563" fill-opacity="0.78" stroke="#111827" stroke-width="1.5" data-row-id="row-07" data-x="6" data-y="5.0800000000000001" data-multiplicity="1"/><circle cx="400.909" cy="222.689" r="5" fill="#4B5563" fill-opacity="0.78" stroke="#111827" stroke-width="1.5" data-row-id="row-08" data-x="7" data-y="5.5600000000000005" data-multiplicity="1"/><circle cx="448.182" cy="212.305" r="5" fill="#4B5563" fill-opacity="0.78" stroke="#111827" stroke-width="1.5" data-row-id="row-09" data-x="8" data-y="6.1900000000000004" data-multiplicity="1"/><circle cx="495.455" cy="199.449" r="5" fill="#4B5563" fill-opacity="0.78" stroke="#111827" stroke-width="1.5" data-row-id="row-10" data-x="9" data-y="6.9699999999999998" data-multiplicity="1"/><circle cx="542.727" cy="191.538" r="5" fill="#4B5563" fill-opacity="0.78" stroke="#111827" stroke-width="1.5" data-row-id="row-11" data-x="10" data-y="7.4500000000000002" data-multiplicity="1"/><path d="M 542.727 181.538 L 551.727 199.538 L 533.727 199.538 Z" fill="none" stroke="#111827" stroke-width="2.5" data-flag="residual"/><circle cx="590.000" cy="181.154" r="5" fill="#4B5563" fill-opacity="0.78" stroke="#111827" stroke-width="1.5" data-row-id="row-12" data-x="11" data-y="8.0799999999999983" data-multiplicity="1"/><path d="M 590.000 171.154 L 599.000 189.154 L 581.000 189.154 Z" fill="none" stroke="#111827" stroke-width="2.5" data-flag="residual"/></svg>